<svg width="155" height="26" viewBox="0 0 155 26" fill="none" xmlns="http://www.w3.org/2000/svg">
<g clip-path="url(#clip0_3701_7)">
<path d="M12.0945 0.953177C12.5528 -0.135435 14.1138 -0.135434 14.5722 0.95318L17.2772 7.37836C17.4705 7.8373 17.9074 8.15087 18.4089 8.19059L25.4302 8.74669C26.6199 8.84091 27.1022 10.3076 26.1959 11.0746L20.8464 15.6016C20.4643 15.925 20.2973 16.4324 20.4141 16.9158L22.0484 23.6847C22.3253 24.8315 21.0625 25.7381 20.044 25.1235L14.0327 21.4961C13.6033 21.237 13.0633 21.237 12.634 21.4961L6.62265 25.1235C5.60415 25.7381 4.34127 24.8315 4.61818 23.6847L6.25256 16.9158C6.3693 16.4324 6.20243 15.925 5.82034 15.6016L0.47075 11.0746C-0.435624 10.3076 0.0467571 8.84091 1.23639 8.74669L8.25781 8.19059C8.75933 8.15087 9.19621 7.8373 9.38942 7.37836L12.0945 0.953177Z" fill="#006B6A"/>
<path d="M44.0945 0.953177C44.5528 -0.135435 46.1138 -0.135434 46.5722 0.95318L49.2772 7.37836C49.4705 7.8373 49.9074 8.15087 50.4089 8.19059L57.4302 8.74669C58.6199 8.84091 59.1022 10.3076 58.1959 11.0746L52.8464 15.6016C52.4643 15.925 52.2973 16.4324 52.4141 16.9158L54.0484 23.6847C54.3253 24.8315 53.0625 25.7381 52.044 25.1235L46.0327 21.4961C45.6033 21.237 45.0633 21.237 44.634 21.4961L38.6227 25.1235C37.6041 25.7381 36.3413 24.8315 36.6182 23.6847L38.2526 16.9158C38.3693 16.4324 38.2024 15.925 37.8203 15.6016L32.4707 11.0746C31.5644 10.3076 32.0468 8.84091 33.2364 8.74669L40.2578 8.19059C40.7593 8.15087 41.1962 7.8373 41.3894 7.37836L44.0945 0.953177Z" fill="#006B6A"/>
<path d="M76.0945 0.953177C76.5528 -0.135435 78.1138 -0.135434 78.5722 0.95318L81.2772 7.37836C81.4705 7.8373 81.9074 8.15087 82.4089 8.19059L89.4302 8.74669C90.6199 8.84091 91.1022 10.3076 90.1959 11.0746L84.8464 15.6016C84.4643 15.925 84.2973 16.4324 84.4141 16.9158L86.0484 23.6847C86.3253 24.8315 85.0625 25.7381 84.044 25.1235L78.0327 21.4961C77.6033 21.237 77.0633 21.237 76.634 21.4961L70.6227 25.1235C69.6041 25.7381 68.3413 24.8315 68.6182 23.6847L70.2526 16.9158C70.3693 16.4324 70.2024 15.925 69.8203 15.6016L64.4707 11.0746C63.5644 10.3076 64.0468 8.84091 65.2364 8.74669L72.2578 8.19059C72.7593 8.15087 73.1962 7.8373 73.3894 7.37836L76.0945 0.953177Z" fill="#006B6A"/>
<path d="M108.095 0.953177C108.553 -0.135435 110.114 -0.135434 110.572 0.95318L113.277 7.37836C113.471 7.8373 113.907 8.15087 114.409 8.19059L121.43 8.74669C122.62 8.84091 123.102 10.3076 122.196 11.0746L116.846 15.6016C116.464 15.925 116.297 16.4324 116.414 16.9158L118.048 23.6847C118.325 24.8315 117.063 25.7381 116.044 25.1235L110.033 21.4961C109.603 21.237 109.063 21.237 108.634 21.4961L102.623 25.1235C101.604 25.7381 100.341 24.8315 100.618 23.6847L102.253 16.9158C102.369 16.4324 102.202 15.925 101.82 15.6016L96.4707 11.0746C95.5644 10.3076 96.0468 8.84091 97.2364 8.74669L104.258 8.19059C104.759 8.15087 105.196 7.8373 105.389 7.37836L108.095 0.953177Z" fill="#006B6A"/>
<path d="M140.094 0.953177C140.553 -0.135435 142.114 -0.135434 142.572 0.95318L145.277 7.37836C145.47 7.8373 145.907 8.15087 146.409 8.19059L153.43 8.74669C154.62 8.84091 155.102 10.3076 154.196 11.0746L148.846 15.6016C148.464 15.925 148.297 16.4324 148.414 16.9158L150.048 23.6847C150.325 24.8315 149.062 25.7381 148.044 25.1235L142.032 21.4961C141.603 21.237 141.063 21.237 140.634 21.4961L134.622 25.1235C133.604 25.7381 132.341 24.8315 132.618 23.6847L134.252 16.9158C134.369 16.4324 134.202 15.925 133.82 15.6016L128.471 11.0746C127.564 10.3076 128.047 8.84091 129.236 8.74669L136.258 8.19059C136.759 8.15087 137.196 7.8373 137.389 7.37836L140.094 0.953177Z" fill="#006B6A"/>
</g>
<defs>
<clipPath id="clip0_3701_7">
<rect width="154.666" height="25.1852" fill="white" transform="translate(0 0.136719)"/>
</clipPath>
</defs>
</svg>
