<svg width="34" height="54" viewBox="0 0 34 54" fill="none" xmlns="http://www.w3.org/2000/svg">
<path d="M28.7078 0.23999H5.29287C2.53326 0.23999 0.275391 2.49786 0.275391 5.25747V48.7423C0.275391 51.5019 2.53326 53.7598 5.29287 53.7598H28.7078C31.4674 53.7598 33.7253 51.5019 33.7253 48.7423V5.25747C33.7253 2.49786 31.4674 0.23999 28.7078 0.23999ZM10.3103 2.74873H23.6903V4.42122H10.3103V2.74873ZM17.0003 50.4148C16.1132 50.4148 15.2624 50.0624 14.6351 49.4351C14.0078 48.8077 13.6553 47.9569 13.6553 47.0698C13.6553 46.1826 14.0078 45.3318 14.6351 44.7045C15.2624 44.0772 16.1132 43.7248 17.0003 43.7248C17.8875 43.7248 18.7383 44.0772 19.3656 44.7045C19.9929 45.3318 20.3453 46.1826 20.3453 47.0698C20.3453 47.9569 19.9929 48.8077 19.3656 49.4351C18.7383 50.0624 17.8875 50.4148 17.0003 50.4148ZM30.3803 40.3798H3.62038V6.92996H30.3803V40.3798Z" fill="#006B6A"/>
</svg>
